<?xml version="1.0" encoding="UTF-8" standalone="no"?>
<!-- Created with Inkscape (http://www.inkscape.org/) -->

<svg
   width="134.91353mm"
   height="124.38316mm"
   viewBox="0 0 134.91353 124.38316"
   version="1.1"
   id="svg3805"
   xml:space="preserve"
   inkscape:version="1.2.2 (732a01da63, 2022-12-09, custom)"
   sodipodi:docname="book.svg"
   xmlns:inkscape="http://www.inkscape.org/namespaces/inkscape"
   xmlns:sodipodi="http://sodipodi.sourceforge.net/DTD/sodipodi-0.dtd"
   xmlns="http://www.w3.org/2000/svg"
   xmlns:svg="http://www.w3.org/2000/svg"><sodipodi:namedview
     id="namedview3807"
     pagecolor="#ffffff"
     bordercolor="#000000"
     borderopacity="0.25"
     inkscape:showpageshadow="2"
     inkscape:pageopacity="0.0"
     inkscape:pagecheckerboard="0"
     inkscape:deskcolor="#d1d1d1"
     inkscape:document-units="mm"
     showgrid="false"
     inkscape:zoom="0.69397447"
     inkscape:cx="-9.3663388"
     inkscape:cy="274.50578"
     inkscape:window-width="1862"
     inkscape:window-height="1013"
     inkscape:window-x="0"
     inkscape:window-y="0"
     inkscape:window-maximized="1"
     inkscape:current-layer="layer1" /><defs
     id="defs3802" /><g
     inkscape:label="Layer 1"
     inkscape:groupmode="layer"
     id="layer1"
     transform="translate(-31.161654,-76.37146)"><path
       style="fill:#ffa900;fill-opacity:1;stroke:none;stroke-width:0.264583"
       d="m 94.11886,76.593418 c -2.87232,0.83016 -5.07048,4.30544 -6.95458,6.44576 -4.622,5.24978 -9.40117,10.36077 -14.02291,15.61042 -3.91478,4.446592 -7.91263,8.825972 -11.87556,13.229172 l -16.40417,18.25625 c -2.88446,3.2049 -6.34751,6.33386 -8.5667,10.05417 -5.54492,9.2956 -7.22566,22.30384 -1.88944,32.01458 4.35668,7.92824 11.48379,9.97796 19.49669,12.44203 7.91316,2.43311 15.88267,4.68445 23.8125,7.06305 7.84146,2.35215 15.67788,4.73472 23.54792,6.99056 2.94693,0.84481 6.71036,2.80881 9.78958,1.74889 2.37279,-0.81677 3.91213,-3.3819 5.44671,-5.22578 3.30095,-3.96584 6.6601,-7.88961 9.89913,-11.90625 8.41348,-10.43279 17.11907,-20.64888 25.68601,-30.95625 4.05262,-4.87574 9.10537,-9.68058 12.42589,-15.08125 1.7989,-2.92603 0.0934,-5.44169 -0.23045,-8.46667 -0.46408,-4.33043 4.0132,-12.92172 -3.48562,-13.64853 -6.85456,-0.6641 -6.93182,9.40356 -6.87811,13.91312 0.0156,1.30916 0.69638,3.00646 0.12515,4.23333 -0.80037,1.71873 -2.55561,3.31047 -3.76502,4.7625 l -7.71711,9.26042 c -8.51931,10.21053 -16.97328,20.47583 -25.48651,30.69166 l -6.79265,8.20208 c -0.77973,0.93451 -1.74652,2.66462 -2.9419,3.08161 -1.32292,0.46116 -3.97722,-0.83503 -5.28135,-1.23614 -4.48734,-1.3798 -8.99716,-2.68737 -13.49375,-4.03622 -8.98737,-2.69584 -17.98109,-5.38427 -26.9875,-8.01581 -4.2639,-1.24566 -10.04483,-1.97829 -13.75834,-4.44156 -5.51203,-3.65681 -7.36004,-10.94264 -5.62342,-17.10187 2.21721,-7.86369 11.13951,-3.7899 16.47134,-2.26986 l 31.48542,8.99583 c 4.66301,1.32953 10.47591,4.12565 15.34583,4.07352 2.60827,-0.0278 4.33705,-2.10661 5.89254,-3.92033 3.03794,-3.54277 6.07721,-7.09321 9.17548,-10.58333 11.39217,-12.83282 22.61579,-25.85244 33.76851,-38.89375 2.65483,-3.10409 5.32421,-6.2058 8.03566,-9.26042 1.47981,-1.6674 3.40333,-3.483772 3.66739,-5.820832 0.7866,-6.9621 -10.33304,-7.31669 -15.03125,-8.35439 -13.14661,-2.90372 -26.30196,-5.79501 -39.42291,-8.8121 -3.78539,-0.87046 -7.58428,-1.68723 -11.37709,-2.52498 -1.92669,-0.42553 -4.11533,-1.08204 -6.08541,-0.51263 m -0.26459,20.32475 c 3.29512,-0.0911 6.88261,1.37901 10.05417,2.16164 6.42753,1.586182 12.86166,3.208342 19.31459,4.689222 3.57531,0.82047 9.41413,1.18136 12.40657,3.3393 1.67958,1.211 0.62415,2.73526 -0.39185,3.97669 -1.79784,2.19657 -3.46762,4.81515 -6.45847,5.31098 -3.42477,0.56727 -7.53825,-1.07765 -10.84792,-1.905 -7.22207,-1.80499 -14.47457,-3.48668 -21.69584,-5.29167 -2.88105,-0.71993 -8.28146,-1.01097 -10.52274,-3.00884 -1.51606,-1.35149 -0.072,-2.93978 0.88847,-4.1013 2.0066,-2.426232 3.80153,-5.075592 7.25302,-5.171022 z"
       id="path4200" /></g></svg>
