<?xml version="1.0" encoding="UTF-8" standalone="no"?>
<svg
   width="414.52396pt"
   height="507.50201pt"
   version="1.1"
   viewBox="0 0 414.52396 507.50201"
   id="svg117"
   sodipodi:docname="noun-science-3636518.svg"
   inkscape:version="1.2.2 (732a01da63, 2022-12-09, custom)"
   xmlns:inkscape="http://www.inkscape.org/namespaces/inkscape"
   xmlns:sodipodi="http://sodipodi.sourceforge.net/DTD/sodipodi-0.dtd"
   xmlns="http://www.w3.org/2000/svg"
   xmlns:svg="http://www.w3.org/2000/svg">
  <sodipodi:namedview
     id="namedview119"
     pagecolor="#ffffff"
     bordercolor="#000000"
     borderopacity="0.25"
     inkscape:showpageshadow="2"
     inkscape:pageopacity="0.0"
     inkscape:pagecheckerboard="0"
     inkscape:deskcolor="#d1d1d1"
     inkscape:document-units="pt"
     showgrid="false"
     inkscape:zoom="0.83464286"
     inkscape:cx="29.353872"
     inkscape:cy="387.59093"
     inkscape:window-width="1862"
     inkscape:window-height="1013"
     inkscape:window-x="0"
     inkscape:window-y="0"
     inkscape:window-maximized="1"
     inkscape:current-layer="svg117" />
  <defs
     id="defs57">
    <symbol
       id="g"
       overflow="visible">
      <path
         d="m 29.312,-1.75 c -1.5117,0.78125 -3.0898,1.3711 -4.7344,1.7656 -1.6367,0.40625 -3.3398,0.60938 -5.1094,0.60938 -5.3125,0 -9.5273,-1.4844 -12.641,-4.4531 -3.1055,-2.9688 -4.6562,-7 -4.6562,-12.094 0,-5.094 1.5508,-9.125 4.6562,-12.094 3.1133,-2.9688 7.3281,-4.4531 12.641,-4.4531 1.7695,0 3.4727,0.19922 5.1094,0.59375 1.6445,0.39844 3.2227,0.99219 4.7344,1.7812 v 6.5938 c -1.5312,-1.0391 -3.0391,-1.8008 -4.5156,-2.2812 -1.4805,-0.48828 -3.0391,-0.73438 -4.6719,-0.73438 -2.9375,0 -5.2461,0.94531 -6.9219,2.8281 -1.6797,1.875 -2.5156,4.4648 -2.5156,7.7656 0,3.293 0.83594,5.8828 2.5156,7.7656 1.6758,1.875 3.9844,2.8125 6.9219,2.8125 1.6328,0 3.1914,-0.23828 4.6719,-0.71875 1.4766,-0.48828 2.9844,-1.2539 4.5156,-2.2969 z"
         id="path18" />
    </symbol>
    <symbol
       id="b"
       overflow="visible">
      <path
         d="m 21.453,-17.406 c -0.67969,-0.3125 -1.3516,-0.53906 -2.0156,-0.6875 -0.65625,-0.15625 -1.3203,-0.23438 -1.9844,-0.23438 -1.9688,0 -3.4844,0.63281 -4.5469,1.8906 -1.0547,1.2617 -1.5781,3.0703 -1.5781,5.4219 V 6.2e-4 H 3.6718 v -23.922 h 7.6562 v 3.9219 c 0.97656,-1.5625 2.1016,-2.7031 3.375,-3.4219 1.2812,-0.71875 2.8125,-1.0781 4.5938,-1.0781 0.25,0 0.52344,0.01172 0.82812,0.03125 0.30078,0.02344 0.73438,0.07031 1.2969,0.14062 z"
         id="path21" />
    </symbol>
    <symbol
       id="a"
       overflow="visible">
      <path
         d="m 27.562,-12.031 v 2.1875 H 9.671 c 0.1875,1.793 0.83203,3.1367 1.9375,4.0312 1.1133,0.89844 2.6719,1.3438 4.6719,1.3438 1.6016,0 3.25,-0.23438 4.9375,-0.70312 1.6875,-0.47656 3.4219,-1.2031 5.2031,-2.1719 v 5.8906 c -1.8047,0.6875 -3.6094,1.2031 -5.4219,1.5469 -1.8125,0.35156 -3.6211,0.53125 -5.4219,0.53125 -4.3359,0 -7.7031,-1.0977 -10.109,-3.2969 -2.3984,-2.207 -3.5938,-5.2969 -3.5938,-9.2656 0,-3.9062 1.1758,-6.9727 3.5312,-9.2031 2.3633,-2.2383 5.6094,-3.3594 9.7344,-3.3594 3.7578,0 6.7695,1.1367 9.0312,3.4062 2.2578,2.2617 3.3906,5.2812 3.3906,9.0625 z m -7.8594,-2.5312 c 0,-1.457 -0.42969,-2.6289 -1.2812,-3.5156 -0.84375,-0.89453 -1.9492,-1.3438 -3.3125,-1.3438 -1.4922,0 -2.6992,0.41797 -3.625,1.25 -0.91797,0.83594 -1.4922,2.0391 -1.7188,3.6094 z"
         id="path24" />
    </symbol>
    <symbol
       id="f"
       overflow="visible">
      <path
         d="m 14.391,-10.766 c -1.5938,0 -2.793,0.27344 -3.5938,0.8125 -0.80469,0.54297 -1.2031,1.3398 -1.2031,2.3906 0,0.96875 0.32031,1.7305 0.96875,2.2812 0.64453,0.54297 1.5469,0.8125 2.7031,0.8125 1.4375,0 2.6445,-0.51562 3.625,-1.5469 0.98828,-1.0312 1.4844,-2.3203 1.4844,-3.875 v -0.875 z m 11.688,-2.8906 V -6e-4 h -7.7031 v -3.5469 c -1.0312,1.4492 -2.1875,2.5078 -3.4688,3.1719 -1.2813,0.6641 -2.8398,1 -4.6719,1 -2.4805,0 -4.4961,-0.72266 -6.0469,-2.1719 -1.543,-1.4453 -2.3125,-3.3203 -2.3125,-5.625 0,-2.8125 0.96094,-4.8672 2.8906,-6.1719 1.9375,-1.3125 4.9688,-1.9688 9.0938,-1.9688 h 4.5156 v -0.60938 c 0,-1.207 -0.48047,-2.0938 -1.4375,-2.6562 -0.94922,-0.5625 -2.4375,-0.84375 -4.4688,-0.84375 -1.6367,0 -3.1562,0.16797 -4.5625,0.5 -1.4062,0.32422 -2.7188,0.8125 -3.9375,1.4688 v -5.8281 c 1.6445,-0.40625 3.2891,-0.70703 4.9375,-0.90625 1.6562,-0.20703 3.3047,-0.3125 4.9531,-0.3125 4.3203,0 7.4375,0.85547 9.3438,2.5625 1.9141,1.6992 2.875,4.4609 2.875,8.2812 z"
         id="path27" />
    </symbol>
    <symbol
       id="e"
       overflow="visible">
      <path
         d="m 12.031,-30.719 v 6.7969 h 7.875 v 5.4688 h -7.875 v 10.141 c 0,1.1172 0.21875,1.8711 0.65625,2.2656 0.4375,0.38672 1.3125,0.57812 2.625,0.57812 h 3.9375 v 5.4688 h -6.5625 c -3.0234,0 -5.1641,-0.62891 -6.4219,-1.8906 -1.2617,-1.2578 -1.8906,-3.3984 -1.8906,-6.4219 v -10.141 h -3.7969 v -5.4688 h 3.7969 v -6.7969 z"
         id="path30" />
    </symbol>
    <symbol
       id="i"
       overflow="visible">
      <path
         d="m 19.953,-20.422 v -12.812 h 7.6875 V 0 H 19.953 v -3.4531 c -1.0547,1.4062 -2.2148,2.4375 -3.4844,3.0938 -1.2734,0.65625 -2.7422,0.98438 -4.4062,0.98438 -2.9492,0 -5.3711,-1.1719 -7.2656,-3.5156 -1.8867,-2.3438 -2.8281,-5.3594 -2.8281,-9.0469 0,-3.6875 0.94141,-6.7031 2.8281,-9.0469 1.8945,-2.3438 4.3164,-3.5156 7.2656,-3.5156 1.6562,0 3.1172,0.33594 4.3906,1 1.2812,0.65625 2.4453,1.6836 3.5,3.0781 z m -5.0469,15.484 c 1.6445,0 2.8945,-0.59766 3.75,-1.7969 0.86328,-1.1953 1.2969,-2.9297 1.2969,-5.2031 0,-2.2812 -0.43359,-4.0195 -1.2969,-5.2188 -0.85547,-1.1953 -2.1055,-1.7969 -3.75,-1.7969 -1.625,0 -2.8711,0.60156 -3.7344,1.7969 -0.85547,1.1992 -1.2812,2.9375 -1.2812,5.2188 0,2.2734 0.42578,4.0078 1.2812,5.2031 0.86328,1.1992 2.1094,1.7969 3.7344,1.7969 z"
         id="path33" />
    </symbol>
    <symbol
       id="h"
       overflow="visible">
      <path
         d="m 16.406,-4.9375 c 1.6328,0 2.8828,-0.59766 3.75,-1.7969 0.86328,-1.1953 1.2969,-2.9297 1.2969,-5.2031 0,-2.2812 -0.43359,-4.0195 -1.2969,-5.2188 -0.86719,-1.1953 -2.1172,-1.7969 -3.75,-1.7969 -1.6367,0 -2.8906,0.60547 -3.7656,1.8125 -0.875,1.1992 -1.3125,2.9336 -1.3125,5.2031 0,2.2617 0.4375,3.9961 1.3125,5.2031 0.875,1.1992 2.1289,1.7969 3.7656,1.7969 z m -5.0781,-15.484 c 1.0508,-1.3945 2.2188,-2.4219 3.5,-3.0781 1.2812,-0.66406 2.7539,-1 4.4219,-1 2.9453,0 5.3672,1.1719 7.2656,3.5156 1.8945,2.3438 2.8438,5.3594 2.8438,9.0469 0,3.6875 -0.94922,6.7031 -2.8438,9.0469 -1.8984,2.3438 -4.3203,3.5156 -7.2656,3.5156 -1.668,0 -3.1406,-0.33594 -4.4219,-1 -1.2813,-0.66406 -2.4492,-1.6914 -3.5,-3.0781 V 4e-4 H 3.6717 v -33.234 h 7.6562 z"
         id="path36" />
    </symbol>
    <symbol
       id="d"
       overflow="visible">
      <path
         d="m 0.53125,-23.922 h 7.6562 l 6.4219,16.234 5.4688,-16.234 h 7.6562 l -10.062,26.188 c -1.0117,2.6641 -2.1953,4.5234 -3.5469,5.5781 -1.3438,1.0625 -3.1211,1.5938 -5.3281,1.5938 H 4.37545 V 4.4223 h 2.3906 c 1.3008,0 2.2422,-0.21094 2.8281,-0.625 0.59375,-0.40625 1.0547,-1.1484 1.3906,-2.2188 l 0.20312,-0.65625 z"
         id="path39" />
    </symbol>
    <symbol
       id="c"
       overflow="visible">
      <path
         d="m 15.062,-19.031 c -1.6992,0 -2.9961,0.60938 -3.8906,1.8281 -0.88672,1.2188 -1.3281,2.9766 -1.3281,5.2656 0,2.293 0.44141,4.0469 1.3281,5.2656 0.89453,1.2188 2.1914,1.8281 3.8906,1.8281 1.6641,0 2.9375,-0.60938 3.8125,-1.8281 0.88281,-1.2188 1.3281,-2.9727 1.3281,-5.2656 0,-2.2891 -0.44531,-4.0469 -1.3281,-5.2656 -0.875,-1.2188 -2.1484,-1.8281 -3.8125,-1.8281 z m 0,-5.4688 c 4.1133,0 7.3281,1.1094 9.6406,3.3281 2.3125,2.2187 3.4688,5.2969 3.4688,9.2344 0,3.9297 -1.1562,7.0078 -3.4688,9.2344 -2.3125,2.2188 -5.5273,3.3281 -9.6406,3.3281 -4.1367,0 -7.3711,-1.1094 -9.7031,-3.3281 -2.3242,-2.2266 -3.4844,-5.3047 -3.4844,-9.2344 0,-3.9375 1.1602,-7.0156 3.4844,-9.2344 2.332,-2.2188 5.5664,-3.3281 9.7031,-3.3281 z"
         id="path42" />
    </symbol>
    <symbol
       id="m"
       overflow="visible">
      <path
         d="m 3.6719,-33.234 h 7.6562 V 0 H 3.6719 Z"
         id="path45" />
    </symbol>
    <symbol
       id="l"
       overflow="visible">
      <path
         d="m 3.4219,-9.3125 v -14.609 h 7.6875 v 2.3906 c 0,1.293 -0.01172,2.918 -0.03125,4.875 -0.01172,1.9609 -0.01563,3.2656 -0.01563,3.9219 0,1.9297 0.04687,3.3125 0.14062,4.1562 0.10156,0.84375 0.28125,1.4609 0.53125,1.8438 0.3125,0.5 0.71875,0.88672 1.2188,1.1562 0.50781,0.27344 1.0938,0.40625 1.75,0.40625 1.5938,0 2.8438,-0.60938 3.75,-1.8281 0.91406,-1.2266 1.375,-2.9297 1.375,-5.1094 v -11.812 h 7.6406 v 23.922 h -7.6406 v -3.4531 c -1.1562,1.3867 -2.3828,2.4141 -3.6719,3.0781 -1.2812,0.66406 -2.6992,1 -4.25,1 -2.7734,0 -4.8828,-0.84766 -6.3281,-2.5469 -1.4375,-1.6953 -2.1562,-4.1602 -2.1562,-7.3906 z"
         id="path48" />
    </symbol>
    <symbol
       id="k"
       overflow="visible">
      <path
         d="m 23,-23.172 v 6.2344 c -1.0312,-0.71875 -2.0742,-1.2422 -3.125,-1.5781 -1.043,-0.34375 -2.125,-0.51562 -3.25,-0.51562 -2.1367,0 -3.8047,0.625 -5,1.875 -1.1875,1.2422 -1.7812,2.9805 -1.7812,5.2188 0,2.2305 0.59375,3.9688 1.7812,5.2188 1.1953,1.25 2.8633,1.875 5,1.875 1.1953,0 2.332,-0.17578 3.4062,-0.53125 1.0703,-0.36328 2.0625,-0.89453 2.9688,-1.5938 v 6.2656 c -1.1875,0.4375 -2.4023,0.76562 -3.6406,0.98438 -1.2305,0.22656 -2.4648,0.34375 -3.7031,0.34375 -4.3125,0 -7.6875,-1.1094 -10.125,-3.3281 -2.4375,-2.2187 -3.6562,-5.2969 -3.6562,-9.2344 0,-3.9453 1.2188,-7.0234 3.6562,-9.2344 2.4375,-2.2188 5.8125,-3.3281 10.125,-3.3281 1.25,0 2.4844,0.10938 3.7031,0.32812 1.2187,0.21874 2.4297,0.55469 3.6406,1 z"
         id="path51" />
    </symbol>
    <symbol
       id="j"
       overflow="visible">
      <path
         d="M 11.328,-3.4531 V 9.0939 H 3.6718 v -33.016 h 7.6562 v 3.5 c 1.0508,-1.3945 2.2188,-2.4219 3.5,-3.0781 1.2812,-0.66406 2.7539,-1 4.4219,-1 2.9453,0 5.3672,1.1719 7.2656,3.5156 1.8945,2.3438 2.8438,5.3594 2.8438,9.0469 0,3.6875 -0.94922,6.7031 -2.8438,9.0469 -1.8984,2.3438 -4.3203,3.5156 -7.2656,3.5156 -1.668,0 -3.1406,-0.33594 -4.4219,-1 -1.2813,-0.66406 -2.4492,-1.6914 -3.5,-3.0781 z m 5.0781,-15.5 c -1.6367,0 -2.8906,0.60547 -3.7656,1.8125 -0.875,1.1992 -1.3125,2.9336 -1.3125,5.2031 0,2.2617 0.4375,3.9961 1.3125,5.2031 0.875,1.1992 2.1289,1.7969 3.7656,1.7969 1.6328,0 2.8828,-0.59766 3.75,-1.7969 0.86328,-1.1953 1.2969,-2.9297 1.2969,-5.2031 0,-2.2812 -0.43359,-4.0195 -1.2969,-5.2188 -0.86719,-1.1953 -2.1172,-1.7969 -3.75,-1.7969 z"
         id="path54" />
    </symbol>
  </defs>
  <path
     style="fill:#ffffff;fill-opacity:1;stroke-width:0.75"
     d="M 278.7167,46.951219 163.49386,134.80925 58.387155,268.11617 156.13316,370.50957 307.812,275.2768 394.89079,138.20704 293.1608,42.005476 Z"
     id="path2308" />
  <path
     id="rect2233"
     style="fill:#ffffff;fill-opacity:1;stroke-width:0.906737"
     d="m 52.088424,10.725719 c -1.50089,0.269064 -2.98163,0.589565 -4.43971,0.959706 -1.45808,0.370139 -2.89432,0.790019 -4.3027,1.257709 -1.40837,0.46769 -2.79041,0.982785 -4.14217,1.544499 -1.35175,0.561714 -2.67189,1.169465 -3.96012,1.821676 -1.28823,0.652211 -2.5446,1.350057 -3.76241,2.08924 -1.21779,0.739183 -2.39682,1.519757 -3.53728,2.342385 -1.14046,0.822626 -2.24225,1.686574 -3.29847,2.589118 -1.05621,0.902545 -2.06717,1.844102 -3.03223,2.823038 -0.96442,0.978498 -1.87491,1.986305 -2.72883,3.021707 -0.85392,1.035402 -1.6514,2.099111 -2.39212,3.185129 -0.74072,1.08602 -1.42473,2.195772 -2.04956,3.326122 -0.62481,1.13035 -1.191,2.281095 -1.69719,3.449489 -0.50619,1.168393 -0.95215,2.353478 -1.337,3.55363 -0.38485,1.200152 -0.70818,2.414525 -0.96899,3.640148 -0.2608,1.225623 -0.4591002,2.462632 -0.5931402,3.70744 -0.13403,1.244807 -0.2049,2.497798 -0.20946,3.755504 V 435.45826 c 1.4558002,-1.12687 2.9634302,-2.20344 4.5160702,-3.22519 1.55264,-1.02174 3.15118,-1.98981 4.79207,-2.90315 1.64091,-0.91334 3.32403,-1.77144 5.04461,-2.5731 1.72058,-0.80164 3.47804,-1.54676 5.26972,-2.23343 1.79166,-0.68666 3.61717,-1.31415 5.47133,-1.88256 1.85418,-0.56839 3.73749,-1.07683 5.64557,-1.52367 1.9081,-0.44683 3.84093,-0.83317 5.79434,-1.15517 1.95343,-0.32199 3.92752,-0.57998 5.91767,-0.77385 z" />
  <path
     id="rect2147"
     style="fill:#ffffff;fill-opacity:1;stroke-width:0.791488"
     d="m 51.189578,406.41954 c -0.892504,0.0613 -1.779497,0.15205 -2.659428,0.2714 -0.879943,0.11935 -1.753361,0.2674 -2.618549,0.44339 -0.865189,0.176 -1.721817,0.37948 -2.570081,0.61066 -0.848263,0.23118 -1.687904,0.48982 -2.517072,0.77475 -0.829168,0.28493 -1.648607,0.5969 -2.456498,0.93413 -0.80788,0.33723 -1.603901,0.70068 -2.388333,1.08876 -0.784431,0.38809 -1.556849,0.80117 -2.31565,1.23867 -0.758802,0.43749 -1.50439,0.89837 -2.23538,1.38382 -0.73099,0.48546 -1.448053,0.99546 -2.14905,1.52743 -0.700997,0.53198 -1.38633,1.08607 -2.055162,1.66312 -0.668833,0.57705 -1.32071,1.17657 -1.955196,1.79724 -0.634487,0.62068 -1.251212,1.26221 -1.849182,1.92506 -0.597969,0.66286 -1.177846,1.3477 -1.737117,2.05129 -0.559272,0.70359 -1.097555,1.42676 -1.615957,2.16963 -0.518392,0.74288 -1.016426,1.50569 -1.491766,2.2864 -0.47534,0.78072 -0.92838,1.57975 -1.358488,2.39686 -0.430118,0.81684 -0.833727,1.64342 -1.210072,2.48048 -0.376346,0.83706 -0.725449,1.68428 -1.048032,2.53887 -0.322573,0.85458 -0.618668,1.71679 -0.887479,2.58619 -0.268821,0.86941 -0.510389,1.74569 -0.725438,2.62724 -0.215059,0.88154 -0.40362,1.76938 -0.564906,2.66037 -0.161297,0.89098 -0.29533,1.78471 -0.402855,2.68245 -0.107524,0.89774 -0.18855,1.79959 -0.242312,2.70139 -0.05376,0.90179 -0.08023,1.80455 -0.08023,2.7077 0,0.90316 0.02647,1.80587 0.08023,2.70771 0.05376,0.90182 0.134788,1.80201 0.242312,2.6998 0.107525,0.89781 0.241558,1.79295 0.402855,2.68404 0.161286,0.89109 0.349847,1.77868 0.564906,2.66036 0.215049,0.88168 0.456617,1.75766 0.725438,2.62723 0.268811,0.86958 0.564906,1.733 0.887479,2.58779 0.322583,0.85478 0.671686,1.70157 1.048032,2.53886 0.376345,0.8373 0.779954,1.66495 1.210072,2.48206 0.430098,0.81681 0.883158,1.61482 1.358488,2.39527 0.47533,0.78046 0.973385,1.54375 1.491766,2.2864 0.518391,0.74265 1.056695,1.46467 1.615957,2.16806 0.559271,0.7034 1.139148,1.38702 1.737117,2.04971 0.59796,0.66269 1.214695,1.30451 1.849182,1.92506 0.634486,0.62054 1.286363,1.2203 1.955196,1.79725 0.668842,0.57694 1.354155,1.13122 2.055162,1.66311 0.700997,0.5319 1.41806,1.04202 2.14905,1.52743 0.73099,0.4854 1.476578,0.94637 2.23538,1.38383 0.758801,0.43745 1.531209,0.8506 2.31565,1.23866 0.784432,0.38806 1.580443,0.75155 2.388333,1.08876 0.807901,0.33723 1.62733,0.64763 2.456498,0.93256 0.829168,0.28491 1.668809,0.54356 2.517072,0.77474 0.848275,0.23119 1.704892,0.43624 2.570081,0.61224 0.865188,0.176 1.738606,0.32404 2.618549,0.44339 0.879931,0.11936 1.766924,0.21013 2.659428,0.27141 H 404.00387 v -87.09303 z" />
  <g
     id="g325"
     style="fill:#2780e3;fill-opacity:1">
    <g
       id="g316"
       style="fill:#2780e3;fill-opacity:1">
      <path
         d="m 284.93696,154.26 c 9.7852,3.4141 20.082,5.1289 30.449,5.0742 l -35.613,-35 c -0.22656,8.2734 0.92578,16.523 3.4141,24.414 z"
         id="path59"
         style="fill:#2780e3;fill-opacity:1" />
      <path
         d="m 282.91696,226.36 -71.051,-70 h 0.004 c -9.0898,0.75391 -17.656,4.543 -24.328,10.762 -6.082,6.4023 -9.8398,14.66 -10.672,23.449 l 71.051,70 h -0.004 c 8.9805,-0.51953 17.473,-4.2695 23.902,-10.555 6.4336,-6.2891 10.375,-14.691 11.098,-23.656 z"
         id="path61"
         style="fill:#2780e3;fill-opacity:1" />
      <path
         d="m 179.93696,219.63 8.75,29.137 29.664,8.75 1.75,0.4375 -40.602,-40.074 c 0.17188,0.875 0.26172,0.875 0.4375,1.75 z"
         id="path63"
         style="fill:#2780e3;fill-opacity:1" />
      <path
         d="m 279.85696,197.49 -8.75,-29.137 -29.664,-8.75 h -1.75 l 40.953,39.723 c -0.52344,-0.69922 -0.61328,-1.2227 -0.78906,-1.8359 z"
         id="path65"
         style="fill:#2780e3;fill-opacity:1" />
      <path
         d="m 174.85696,262.94 -5.7734,-1.75 c -7.9922,-2.4297 -16.32,-3.582 -24.676,-3.4141 l 35.613,35 c 0.0586,-10.172 -1.6875,-20.273 -5.1641,-29.836 z"
         id="path67"
         style="fill:#2780e3;fill-opacity:1" />
    </g>
    <path
       d="M 377.85696,0 H 58.046959 c -15.371,0 -30.113,6.1016 -40.988,16.961 C 6.1799593,27.82 0.05895932,42.555 0.03595932,57.926 v 391.65 c -0.54297,15.145 5.08199998,29.863 15.58599968,40.781 10.508,10.918 25,17.105 40.152,17.145 H 405.77396 c 2.3203,0 4.5469,-0.92188 6.1875,-2.5625 1.6406,-1.64062 2.5625,-3.8672 2.5625,-6.1875 V 37.012 c -0.0234,-9.75 -3.8828,-19.098 -10.742,-26.023 -6.8594,-6.9258 -16.172,-10.875 -25.922,-10.988 z M 87.356959,271.95 c 9.5391,-9.4492 21.965001,-23.711 35.789001,-27.648 14.918,-4.9375 30.969,-5.332 46.113,-1.1367 l -5.6016,-18.375 c -8.75,-28.523 -4.1992,-54.25 12.602,-70 10.68,-9.832 24.598,-15.406 39.113,-15.664 14.875,-1.3984 35,5.0742 50.051,9.7109 h -0.004 c -4.2305,-14.871 -3.8359,-30.68 1.1406,-45.324 4.0234,-13.387 18.727,-25.461 28.176,-35 h -0.004 c 3.4453,-2.2188 7.9648,-1.75 10.883,1.125 2.9182,2.875 3.4492,7.3867 1.2812,10.863 -8.3438,7.2422 -15.777,15.469 -22.137,24.5 l 50.664,49.875 h -0.004 c 9.0781,-6.3047 17.387,-13.645 24.766,-21.875 1.6562,-1.625 3.8945,-2.5234 6.2148,-2.5 2.3242,0.0273 4.5391,0.97266 6.1641,2.6328 3.3828,3.4531 3.3242,8.9961 -0.12891,12.379 -9.7109,9.3633 -21.961,23.801 -35.438,27.648 v 0.004 c -14.887,4.9531 -30.914,5.3516 -46.027,1.1367 l 5.6016,18.375 c 8.75,28.176 4.2891,53.551 -11.812,70 -16.449,15.926 -42.176,20.211 -70.699,11.727 l -18.898,-5.5117 -0.004,-0.004 c 3.8906,14.879 3.1914,30.59 -2.0117,45.062 -3.9375,13.477 -18.637,25.461 -28.176,35 -1.6523,1.6367 -3.8867,2.5508 -6.2109,2.5391 -3.5391,-0.0156 -6.7227,-2.1602 -8.0625,-5.4375 -1.3398,-3.2734 -0.57422,-7.0352 1.9375,-9.5273 8.2891,-7.1367 15.691,-15.246 22.051,-24.148 l -50.312,-49.875 c -9.0977,6.2812 -17.41,13.625 -24.766001,21.875 -3.4531,3.3828 -8.9961,3.3242 -12.379,-0.13281 -3.3828,-3.4531 -3.3242,-8.9961 0.12891,-12.379 z m -70,-214.02 c 0.0273,-9.1992 3.1875,-18.113 8.9609,-25.27 5.7773,-7.1602 13.82,-12.137 22.805,-14.105 v 373.45 c -11.914,1.418 -23.051,6.6328 -31.766,14.875 z M 397.37696,490 H 56.126959 c -13.812,-0.91016 -26.203,-8.8086 -32.859,-20.941 -6.6562,-12.137 -6.6562,-26.832 0,-38.965 6.6562,-12.137 19.047,-20.035 32.859,-20.945 H 397.37696 Z"
       id="path69"
       style="fill:#2780e3;fill-opacity:1" />
  </g>
</svg>
